<?xml version="1.0" standalone="no"?>
<!DOCTYPE svg PUBLIC "-//W3C//DTD SVG 20010904//EN"
 "http://www.w3.org/TR/2001/REC-SVG-20010904/DTD/svg10.dtd">
<svg version="1.0" xmlns="http://www.w3.org/2000/svg"
 width="521.000000pt" height="521.000000pt" viewBox="0 0 521.000000 521.000000"
 preserveAspectRatio="xMidYMid meet">
<metadata>
Created by potrace 1.11, written by Peter Selinger 2001-2013
</metadata>
<g transform="translate(0.000000,521.000000) scale(0.100000,-0.100000)"
fill="#000000" stroke="none">
<path d="M2668 5196 c-65 -17 -107 -53 -168 -143 -49 -72 -59 -81 -129 -115
-42 -20 -96 -55 -121 -78 -66 -60 -148 -122 -203 -154 l-48 -27 -42 34 c-66
54 -147 102 -211 126 -32 12 -60 20 -62 18 -4 -4 31 -182 42 -221 6 -17 2 -18
-41 -13 -56 7 -141 45 -206 92 -27 19 -52 35 -56 35 -3 0 -14 6 -22 14 -28 25
-144 58 -221 63 -130 9 -249 -30 -359 -117 -42 -33 -84 -89 -198 -264 -80
-121 -158 -239 -173 -261 -51 -74 -91 -166 -105 -240 -7 -39 -8 -152 -2 -162
3 -4 8 -26 11 -47 12 -74 65 -167 136 -236 37 -36 83 -77 101 -91 85 -66 113
-283 68 -514 -5 -27 -11 -60 -14 -73 -19 -99 -106 -331 -195 -517 -76 -159
-88 -189 -120 -283 -80 -239 -98 -487 -49 -682 20 -83 79 -226 121 -296 192
-322 535 -534 1108 -685 112 -29 392 -94 454 -105 17 -3 73 -16 125 -29 78
-20 99 -29 118 -54 35 -45 116 -100 196 -134 60 -25 87 -31 167 -33 155 -5
265 36 377 139 60 57 86 69 193 92 60 13 167 37 175 39 6 2 28 6 50 10 22 5
67 15 100 23 33 8 71 17 85 19 14 3 33 7 42 10 9 3 25 6 35 8 36 8 210 58 293
86 188 62 356 139 490 225 41 27 77 51 80 54 3 4 21 18 41 33 56 42 166 157
214 223 162 227 227 495 189 776 -27 195 -67 319 -179 554 -90 189 -149 340
-185 475 -31 116 -48 245 -44 343 6 184 43 266 147 325 139 78 239 272 224
432 -12 119 -57 210 -217 438 -16 23 -30 47 -30 52 0 4 -4 10 -8 12 -4 2 -48
63 -97 136 -98 147 -136 190 -210 237 -99 63 -161 80 -290 79 -110 0 -197 -26
-281 -86 -32 -22 -83 -53 -114 -69 -59 -32 -180 -61 -194 -49 -5 5 -3 29 3 57
6 26 13 57 15 68 3 11 9 40 15 65 16 69 16 70 -35 70 -51 0 -124 -32 -182 -80
-41 -34 -41 -34 -82 60 -13 30 -29 62 -35 70 -6 8 -20 33 -30 54 -39 77 -168
185 -240 201 -103 22 -163 25 -217 11z"/>
</g>
</svg>
